<svg width="277" height="69" viewBox="0 0 277 69" fill="none" xmlns="http://www.w3.org/2000/svg">
<path d="M164.5 38.2733C166.617 36.0756 167.563 32.8555 166.716 29.6933C165.43 24.8921 160.495 22.0429 155.693 23.3294C150.892 24.6159 148.043 29.5509 149.329 34.3521C150.616 39.1533 155.551 42.0025 160.352 40.716C161.991 40.2769 163.403 39.4124 164.5 38.2733ZM164.5 38.2733L172.082 45.8552M153.292 33.404C152.578 30.7416 154.158 28.0051 156.821 27.2917M20.808 19.4C23.112 19.4 25.776 18.824 28.8 17.672V25.088C28.128 25.328 27.168 25.592 25.92 25.88C26.304 26.984 26.496 28.016 26.496 28.976C26.496 32.048 25.56 34.736 23.688 37.04C21.864 39.296 19.488 40.64 16.56 41.072C14.64 41.36 13.68 42.392 13.68 44.168C13.68 44.792 13.992 45.416 14.616 46.04C15.432 46.952 16.632 47.528 18.216 47.768C25.08 48.824 28.512 51.68 28.512 56.336C28.512 63.776 24.072 67.496 15.192 67.496C11.544 67.496 8.54403 66.848 6.19203 65.552C3.21603 63.92 1.72803 61.352 1.72803 57.848C1.72803 53.816 3.96003 51.056 8.42403 49.568V49.424C6.79203 48.416 5.97603 46.88 5.97603 44.816C5.97603 42.128 6.74403 40.448 8.28003 39.776V39.632C6.74403 39.104 5.37603 37.904 4.17603 36.032C2.83203 34.016 2.16003 31.856 2.16003 29.552C2.16003 26.096 3.38403 23.216 5.83203 20.912C8.18403 18.752 10.992 17.672 14.256 17.672C16.608 17.672 18.792 18.248 20.808 19.4ZM10.008 29.624C10.008 32.936 11.52 34.592 14.544 34.592C17.472 34.592 18.936 32.912 18.936 29.552C18.936 28.16 18.6 26.96 17.928 25.952C17.112 24.848 15.984 24.296 14.544 24.296C11.52 24.296 10.008 26.072 10.008 29.624ZM21.096 57.272C21.096 54.824 19.08 53.6 15.048 53.6C11.16 53.6 9.21603 54.872 9.21603 57.416C9.21603 59.912 11.328 61.16 15.552 61.16C19.248 61.16 21.096 59.864 21.096 57.272ZM55.2268 17.816C53.1628 17.816 51.0028 18.536 48.7468 19.976V7.376C48.7468 4.64 48.7948 2.84 48.8908 1.976H40.6828C40.8268 2.744 40.8988 4.544 40.8988 7.376V45.464C40.8988 47.672 40.8268 49.184 40.6828 50H49.0348C49.0348 49.856 48.9868 49.28 48.8908 48.272C48.7948 47.216 48.7468 46.28 48.7468 45.464V27.752C50.4268 26.168 52.0588 25.376 53.6428 25.376C55.4668 25.376 56.8588 26.288 57.8188 28.112C58.5388 29.552 58.8988 31.352 58.8988 33.512L58.8268 43.232C58.8268 44.864 58.7068 47.12 58.4668 50H67.1788C66.9868 48.8 66.8908 46.592 66.8908 43.376V33.512C66.8908 29.336 65.9548 25.784 64.0828 22.856C61.9708 19.496 59.0188 17.816 55.2268 17.816ZM86.5845 50.576C83.6565 50.576 80.8485 49.904 78.1605 48.56V40.28C80.6565 42.152 83.4645 43.088 86.5845 43.088C89.3685 43.088 90.7605 42.344 90.7605 40.856C90.7605 39.8 89.9445 38.864 88.3125 38.048C87.5925 37.664 86.3205 36.968 84.4965 35.96C80.3205 33.512 78.2325 30.416 78.2325 26.672C78.2325 23.744 79.2165 21.488 81.1845 19.904C83.0085 18.464 85.3365 17.744 88.1685 17.744C91.2405 17.744 94.0725 18.416 96.6645 19.76V25.952C93.8805 24.656 91.1685 24.008 88.5285 24.008C86.6565 24.008 85.7205 24.68 85.7205 26.024C85.7205 26.936 86.3685 27.752 87.6645 28.472C89.4405 29.384 90.9525 30.2 92.2005 30.92C96.6165 33.464 98.8245 36.632 98.8245 40.424C98.8245 43.928 97.5525 46.568 95.0085 48.344C92.8485 49.832 90.0405 50.576 86.5845 50.576ZM134.452 36.464H118.468C118.852 41.072 121.132 43.376 125.308 43.376C128.044 43.376 130.444 42.68 132.508 41.288V48.992C129.628 50.096 127.06 50.648 124.804 50.648C120.052 50.648 116.38 49.04 113.788 45.824C111.292 42.8 110.044 38.744 110.044 33.656C110.044 29.336 111.076 25.688 113.14 22.712C115.444 19.448 118.612 17.816 122.644 17.816C126.58 17.816 129.604 19.16 131.716 21.848C133.684 24.392 134.668 27.776 134.668 32C134.668 33.632 134.596 35.12 134.452 36.464ZM122.86 24.44C120.076 24.44 118.588 26.264 118.396 29.912H127.252C127.156 26.264 125.692 24.44 122.86 24.44ZM188.403 50C188.547 49.04 188.619 47.408 188.619 45.104V22.712C188.619 20.456 188.547 18.896 188.403 18.032H196.251V20.192C197.691 18.512 199.419 17.672 201.435 17.672C202.299 17.672 203.235 17.864 204.243 18.248V26.384C202.995 25.52 201.867 25.088 200.859 25.088C199.515 25.088 198.051 25.784 196.467 27.176V44.672C196.467 47.12 196.539 48.896 196.683 50H188.403ZM228.736 50.504C224.56 50.504 221.2 48.92 218.656 45.752C216.208 42.728 214.984 38.96 214.984 34.448C214.984 29.936 216.16 26.096 218.512 22.928C221.056 19.52 224.44 17.816 228.664 17.816C231.064 17.816 233.536 18.512 236.08 19.904V27.536C234.16 25.808 232.168 24.944 230.104 24.944C227.896 24.944 226.144 25.904 224.848 27.824C223.744 29.504 223.192 31.544 223.192 33.944C223.192 36.296 223.768 38.312 224.92 39.992C226.216 41.864 227.944 42.8 230.104 42.8C232.408 42.8 234.712 41.84 237.016 39.92V48.272C234.184 49.76 231.424 50.504 228.736 50.504ZM263.689 17.816C261.625 17.816 259.465 18.536 257.209 19.976V7.376C257.209 4.64 257.257 2.84 257.353 1.976H249.145C249.289 2.744 249.361 4.544 249.361 7.376V45.464C249.361 47.672 249.289 49.184 249.145 50H257.497C257.497 49.856 257.449 49.28 257.353 48.272C257.257 47.216 257.209 46.28 257.209 45.464V27.752C258.889 26.168 260.521 25.376 262.105 25.376C263.929 25.376 265.321 26.288 266.281 28.112C267.001 29.552 267.361 31.352 267.361 33.512L267.289 43.232C267.289 44.864 267.169 47.12 266.929 50H275.641C275.449 48.8 275.353 46.592 275.353 43.376V33.512C275.353 29.336 274.417 25.784 272.545 22.856C270.433 19.496 267.481 17.816 263.689 17.816Z" stroke="black" stroke-width="2" stroke-linecap="round"/>
</svg>
